# xmcd
#
# Track frame offsets:
# 150
# 24360
# 44495
# 70537
# 87725
# 109023
# 131512
# 153186
#
# Disc length: 2259 seconds
#
#
# Revision: 0
# Processed by: cddbd v1.5.2PL0 Copyright (c) Steve Scherf et al.
# Submitted via: FreeRIP 2.945 
#
DISCID=5f08d108
DTITLE=One Way - Lady
DYEAR=1900
DGENRE=Soul
TTITLE0=Lady You Are
TTITLE1=I'll Make It Up To You
TTITLE2=If Only You Knew
TTITLE3=Don't Stop
TTITLE4=Mr. Groove
TTITLE5=Smile
TTITLE6=Dynomite
TTITLE7=Can't Get Enough of Your Love
EXTD=
EXTT0=
EXTT1=
EXTT2=
EXTT3=
EXTT4=
EXTT5=
EXTT6=
EXTT7=
PLAYORDER=
